ISO-10303-21;
HEADER;
/* Generated by software containing ST-Developer
 * from STEP Tools, Inc. (www.steptools.com) 
 */
/* OPTION: using custom renumber hook */

FILE_DESCRIPTION(
/* description */ ('STEP AP242 Edition 2',
'CAx-IF Rec.Pracs.---Representation and Presentation of Product Manufa
cturing Information (PMI)---4.0---2014-10-13',
'CAx-IF Rec.Pracs.---3D Tessellated Geometry---0.4---2014-09-14','2;1',
'CAx-IF Rec.Pracs.---User Defined Attributes---1.5---2016-08-15'),
/* implementation_level */ '2;1');

FILE_NAME(
/* name */ 'Part Studio 2 - Part 2',
/* time_stamp */ '2026-09-07T15:39:11Z',
/* author */ (''),
/* organization */ (''),
/* preprocessor_version */ 'ST-DEVELOPER v20',
/* originating_system */ 'ONSHAPE BY PTC INC, 1.220',
/* authorisation */ '  ');

FILE_SCHEMA (('AP242_MANAGED_MODEL_BASED_3D_ENGINEERING_MIM_LF { 1 0 10303 442 3 1 4 }'));
ENDSEC;

DATA;
#10=SHAPE_REPRESENTATION_RELATIONSHIP('','',#403,#11);
#11=ADVANCED_BREP_SHAPE_REPRESENTATION('',(#401),#669);
#12=CONICAL_SURFACE('',#443,0.0021,0.78539816339745);
#13=CONICAL_SURFACE('',#444,0.0021,0.785398163397443);
#14=CONICAL_SURFACE('',#445,0.0021,0.78539816339745);
#15=CONICAL_SURFACE('',#446,0.0021,0.785398163397448);
#16=CIRCLE('',#412,0.0021);
#17=CIRCLE('',#413,0.0021);
#18=CIRCLE('',#415,0.0021);
#19=CIRCLE('',#416,0.0021);
#20=CIRCLE('',#418,0.0021);
#21=CIRCLE('',#419,0.0021);
#22=CIRCLE('',#421,0.0021);
#23=CIRCLE('',#422,0.0021);
#24=CIRCLE('',#426,0.0024);
#25=CIRCLE('',#427,0.0024);
#26=CIRCLE('',#428,0.0024);
#27=CIRCLE('',#429,0.0024);
#28=CIRCLE('',#430,0.00392454556699371);
#29=CIRCLE('',#431,0.00392454556699371);
#30=CIRCLE('',#432,0.00392454556699371);
#31=CIRCLE('',#433,0.00392454556699371);
#32=CIRCLE('',#435,0.00392454556699371);
#33=CIRCLE('',#436,0.00392454556699371);
#34=CIRCLE('',#437,0.00392454556699371);
#35=CIRCLE('',#438,0.00392454556699371);
#36=CYLINDRICAL_SURFACE('',#411,0.0021);
#37=CYLINDRICAL_SURFACE('',#414,0.0021);
#38=CYLINDRICAL_SURFACE('',#417,0.0021);
#39=CYLINDRICAL_SURFACE('',#420,0.0021);
#40=CYLINDRICAL_SURFACE('',#439,0.00392454556699371);
#41=CYLINDRICAL_SURFACE('',#440,0.00392454556699371);
#42=CYLINDRICAL_SURFACE('',#441,0.00392454556699371);
#43=CYLINDRICAL_SURFACE('',#442,0.00392454556699371);
#44=ORIENTED_EDGE('',*,*,#140,.F.);
#45=ORIENTED_EDGE('',*,*,#141,.T.);
#46=ORIENTED_EDGE('',*,*,#142,.T.);
#47=ORIENTED_EDGE('',*,*,#143,.T.);
#48=ORIENTED_EDGE('',*,*,#144,.F.);
#49=ORIENTED_EDGE('',*,*,#145,.T.);
#50=ORIENTED_EDGE('',*,*,#146,.T.);
#51=ORIENTED_EDGE('',*,*,#147,.T.);
#52=ORIENTED_EDGE('',*,*,#148,.T.);
#53=ORIENTED_EDGE('',*,*,#149,.T.);
#54=ORIENTED_EDGE('',*,*,#150,.F.);
#55=ORIENTED_EDGE('',*,*,#151,.T.);
#56=ORIENTED_EDGE('',*,*,#152,.F.);
#57=ORIENTED_EDGE('',*,*,#153,.F.);
#58=ORIENTED_EDGE('',*,*,#154,.T.);
#59=ORIENTED_EDGE('',*,*,#155,.T.);
#60=ORIENTED_EDGE('',*,*,#156,.T.);
#61=ORIENTED_EDGE('',*,*,#157,.F.);
#62=ORIENTED_EDGE('',*,*,#158,.F.);
#63=ORIENTED_EDGE('',*,*,#153,.T.);
#64=ORIENTED_EDGE('',*,*,#159,.T.);
#65=ORIENTED_EDGE('',*,*,#160,.F.);
#66=ORIENTED_EDGE('',*,*,#161,.F.);
#67=ORIENTED_EDGE('',*,*,#157,.T.);
#68=ORIENTED_EDGE('',*,*,#162,.T.);
#69=ORIENTED_EDGE('',*,*,#163,.F.);
#70=ORIENTED_EDGE('',*,*,#164,.T.);
#71=ORIENTED_EDGE('',*,*,#165,.F.);
#72=ORIENTED_EDGE('',*,*,#166,.T.);
#73=ORIENTED_EDGE('',*,*,#167,.F.);
#74=ORIENTED_EDGE('',*,*,#168,.T.);
#75=ORIENTED_EDGE('',*,*,#169,.F.);
#76=ORIENTED_EDGE('',*,*,#170,.F.);
#77=ORIENTED_EDGE('',*,*,#155,.F.);
#78=ORIENTED_EDGE('',*,*,#171,.T.);
#79=ORIENTED_EDGE('',*,*,#160,.T.);
#80=ORIENTED_EDGE('',*,*,#172,.F.);
#81=ORIENTED_EDGE('',*,*,#173,.T.);
#82=ORIENTED_EDGE('',*,*,#174,.T.);
#83=ORIENTED_EDGE('',*,*,#175,.T.);
#84=ORIENTED_EDGE('',*,*,#176,.T.);
#85=ORIENTED_EDGE('',*,*,#177,.T.);
#86=ORIENTED_EDGE('',*,*,#178,.T.);
#87=ORIENTED_EDGE('',*,*,#179,.T.);
#88=ORIENTED_EDGE('',*,*,#154,.F.);
#89=ORIENTED_EDGE('',*,*,#158,.T.);
#90=ORIENTED_EDGE('',*,*,#161,.T.);
#91=ORIENTED_EDGE('',*,*,#171,.F.);
#92=ORIENTED_EDGE('',*,*,#142,.F.);
#93=ORIENTED_EDGE('',*,*,#180,.T.);
#94=ORIENTED_EDGE('',*,*,#144,.T.);
#95=ORIENTED_EDGE('',*,*,#181,.T.);
#96=ORIENTED_EDGE('',*,*,#150,.T.);
#97=ORIENTED_EDGE('',*,*,#182,.T.);
#98=ORIENTED_EDGE('',*,*,#174,.F.);
#99=ORIENTED_EDGE('',*,*,#183,.T.);
#100=ORIENTED_EDGE('',*,*,#152,.T.);
#101=ORIENTED_EDGE('',*,*,#170,.T.);
#102=ORIENTED_EDGE('',*,*,#159,.F.);
#103=ORIENTED_EDGE('',*,*,#156,.F.);
#104=ORIENTED_EDGE('',*,*,#169,.T.);
#105=ORIENTED_EDGE('',*,*,#167,.T.);
#106=ORIENTED_EDGE('',*,*,#165,.T.);
#107=ORIENTED_EDGE('',*,*,#163,.T.);
#108=ORIENTED_EDGE('',*,*,#146,.F.);
#109=ORIENTED_EDGE('',*,*,#184,.T.);
#110=ORIENTED_EDGE('',*,*,#140,.T.);
#111=ORIENTED_EDGE('',*,*,#185,.T.);
#112=ORIENTED_EDGE('',*,*,#172,.T.);
#113=ORIENTED_EDGE('',*,*,#186,.T.);
#114=ORIENTED_EDGE('',*,*,#148,.F.);
#115=ORIENTED_EDGE('',*,*,#187,.T.);
#116=ORIENTED_EDGE('',*,*,#180,.F.);
#117=ORIENTED_EDGE('',*,*,#141,.F.);
#118=ORIENTED_EDGE('',*,*,#184,.F.);
#119=ORIENTED_EDGE('',*,*,#145,.F.);
#120=ORIENTED_EDGE('',*,*,#183,.F.);
#121=ORIENTED_EDGE('',*,*,#173,.F.);
#122=ORIENTED_EDGE('',*,*,#185,.F.);
#123=ORIENTED_EDGE('',*,*,#143,.F.);
#124=ORIENTED_EDGE('',*,*,#182,.F.);
#125=ORIENTED_EDGE('',*,*,#149,.F.);
#126=ORIENTED_EDGE('',*,*,#186,.F.);
#127=ORIENTED_EDGE('',*,*,#175,.F.);
#128=ORIENTED_EDGE('',*,*,#181,.F.);
#129=ORIENTED_EDGE('',*,*,#147,.F.);
#130=ORIENTED_EDGE('',*,*,#187,.F.);
#131=ORIENTED_EDGE('',*,*,#151,.F.);
#132=ORIENTED_EDGE('',*,*,#176,.F.);
#133=ORIENTED_EDGE('',*,*,#166,.F.);
#134=ORIENTED_EDGE('',*,*,#177,.F.);
#135=ORIENTED_EDGE('',*,*,#168,.F.);
#136=ORIENTED_EDGE('',*,*,#178,.F.);
#137=ORIENTED_EDGE('',*,*,#164,.F.);
#138=ORIENTED_EDGE('',*,*,#179,.F.);
#139=ORIENTED_EDGE('',*,*,#162,.F.);
#140=EDGE_CURVE('',#188,#189,#224,.T.);
#141=EDGE_CURVE('',#188,#190,#225,.F.);
#142=EDGE_CURVE('',#190,#191,#226,.T.);
#143=EDGE_CURVE('',#191,#189,#227,.T.);
#144=EDGE_CURVE('',#192,#193,#228,.T.);
#145=EDGE_CURVE('',#192,#194,#229,.T.);
#146=EDGE_CURVE('',#194,#195,#230,.T.);
#147=EDGE_CURVE('',#195,#193,#231,.F.);
#148=EDGE_CURVE('',#196,#197,#232,.T.);
#149=EDGE_CURVE('',#197,#198,#233,.F.);
#150=EDGE_CURVE('',#199,#198,#234,.T.);
#151=EDGE_CURVE('',#199,#196,#235,.T.);
#152=EDGE_CURVE('',#200,#201,#236,.T.);
#153=EDGE_CURVE('',#202,#200,#237,.T.);
#154=EDGE_CURVE('',#202,#203,#238,.T.);
#155=EDGE_CURVE('',#203,#201,#239,.T.);
#156=EDGE_CURVE('',#200,#204,#240,.T.);
#157=EDGE_CURVE('',#205,#204,#241,.T.);
#158=EDGE_CURVE('',#202,#205,#242,.T.);
#159=EDGE_CURVE('',#204,#206,#243,.T.);
#160=EDGE_CURVE('',#207,#206,#244,.T.);
#161=EDGE_CURVE('',#205,#207,#245,.T.);
#162=EDGE_CURVE('',#208,#208,#16,.T.);
#163=EDGE_CURVE('',#209,#209,#17,.T.);
#164=EDGE_CURVE('',#210,#210,#18,.T.);
#165=EDGE_CURVE('',#211,#211,#19,.T.);
#166=EDGE_CURVE('',#212,#212,#20,.T.);
#167=EDGE_CURVE('',#213,#213,#21,.T.);
#168=EDGE_CURVE('',#214,#214,#22,.T.);
#169=EDGE_CURVE('',#215,#215,#23,.T.);
#170=EDGE_CURVE('',#201,#206,#246,.T.);
#171=EDGE_CURVE('',#203,#207,#247,.T.);
#172=EDGE_CURVE('',#216,#217,#248,.T.);
#173=EDGE_CURVE('',#216,#218,#249,.F.);
#174=EDGE_CURVE('',#218,#219,#250,.T.);
#175=EDGE_CURVE('',#219,#217,#251,.T.);
#176=EDGE_CURVE('',#220,#220,#24,.F.);
#177=EDGE_CURVE('',#221,#221,#25,.F.);
#178=EDGE_CURVE('',#222,#222,#26,.F.);
#179=EDGE_CURVE('',#223,#223,#27,.F.);
#180=EDGE_CURVE('',#190,#192,#28,.T.);
#181=EDGE_CURVE('',#193,#199,#29,.T.);
#182=EDGE_CURVE('',#198,#219,#30,.T.);
#183=EDGE_CURVE('',#218,#191,#31,.T.);
#184=EDGE_CURVE('',#194,#188,#32,.F.);
#185=EDGE_CURVE('',#189,#216,#33,.F.);
#186=EDGE_CURVE('',#217,#197,#34,.F.);
#187=EDGE_CURVE('',#196,#195,#35,.F.);
#188=VERTEX_POINT('',#564);
#189=VERTEX_POINT('',#565);
#190=VERTEX_POINT('',#567);
#191=VERTEX_POINT('',#569);
#192=VERTEX_POINT('',#573);
#193=VERTEX_POINT('',#574);
#194=VERTEX_POINT('',#576);
#195=VERTEX_POINT('',#578);
#196=VERTEX_POINT('',#582);
#197=VERTEX_POINT('',#583);
#198=VERTEX_POINT('',#585);
#199=VERTEX_POINT('',#587);
#200=VERTEX_POINT('',#591);
#201=VERTEX_POINT('',#592);
#202=VERTEX_POINT('',#594);
#203=VERTEX_POINT('',#596);
#204=VERTEX_POINT('',#600);
#205=VERTEX_POINT('',#602);
#206=VERTEX_POINT('',#606);
#207=VERTEX_POINT('',#608);
#208=VERTEX_POINT('',#612);
#209=VERTEX_POINT('',#614);
#210=VERTEX_POINT('',#617);
#211=VERTEX_POINT('',#619);
#212=VERTEX_POINT('',#622);
#213=VERTEX_POINT('',#624);
#214=VERTEX_POINT('',#627);
#215=VERTEX_POINT('',#629);
#216=VERTEX_POINT('',#635);
#217=VERTEX_POINT('',#636);
#218=VERTEX_POINT('',#638);
#219=VERTEX_POINT('',#640);
#220=VERTEX_POINT('',#644);
#221=VERTEX_POINT('',#646);
#222=VERTEX_POINT('',#648);
#223=VERTEX_POINT('',#650);
#224=LINE('',#563,#252);
#225=LINE('',#566,#253);
#226=LINE('',#568,#254);
#227=LINE('',#570,#255);
#228=LINE('',#572,#256);
#229=LINE('',#575,#257);
#230=LINE('',#577,#258);
#231=LINE('',#579,#259);
#232=LINE('',#581,#260);
#233=LINE('',#584,#261);
#234=LINE('',#586,#262);
#235=LINE('',#588,#263);
#236=LINE('',#590,#264);
#237=LINE('',#593,#265);
#238=LINE('',#595,#266);
#239=LINE('',#597,#267);
#240=LINE('',#599,#268);
#241=LINE('',#601,#269);
#242=LINE('',#603,#270);
#243=LINE('',#605,#271);
#244=LINE('',#607,#272);
#245=LINE('',#609,#273);
#246=LINE('',#631,#274);
#247=LINE('',#632,#275);
#248=LINE('',#634,#276);
#249=LINE('',#637,#277);
#250=LINE('',#639,#278);
#251=LINE('',#641,#279);
#252=VECTOR('',#451,1.);
#253=VECTOR('',#452,1.);
#254=VECTOR('',#453,1.);
#255=VECTOR('',#454,1.);
#256=VECTOR('',#457,1.);
#257=VECTOR('',#458,1.);
#258=VECTOR('',#459,1.);
#259=VECTOR('',#460,1.);
#260=VECTOR('',#463,1.);
#261=VECTOR('',#464,1.);
#262=VECTOR('',#465,1.);
#263=VECTOR('',#466,1.);
#264=VECTOR('',#469,1.);
#265=VECTOR('',#470,1.);
#266=VECTOR('',#471,1.);
#267=VECTOR('',#472,1.);
#268=VECTOR('',#475,1.);
#269=VECTOR('',#476,1.);
#270=VECTOR('',#477,1.);
#271=VECTOR('',#480,1.);
#272=VECTOR('',#481,1.);
#273=VECTOR('',#482,1.);
#274=VECTOR('',#509,1.);
#275=VECTOR('',#510,1.);
#276=VECTOR('',#513,1.);
#277=VECTOR('',#514,1.);
#278=VECTOR('',#515,1.);
#279=VECTOR('',#516,1.);
#280=EDGE_LOOP('',(#44,#45,#46,#47));
#281=EDGE_LOOP('',(#48,#49,#50,#51));
#282=EDGE_LOOP('',(#52,#53,#54,#55));
#283=EDGE_LOOP('',(#56,#57,#58,#59));
#284=EDGE_LOOP('',(#60,#61,#62,#63));
#285=EDGE_LOOP('',(#64,#65,#66,#67));
#286=EDGE_LOOP('',(#68));
#287=EDGE_LOOP('',(#69));
#288=EDGE_LOOP('',(#70));
#289=EDGE_LOOP('',(#71));
#290=EDGE_LOOP('',(#72));
#291=EDGE_LOOP('',(#73));
#292=EDGE_LOOP('',(#74));
#293=EDGE_LOOP('',(#75));
#294=EDGE_LOOP('',(#76,#77,#78,#79));
#295=EDGE_LOOP('',(#80,#81,#82,#83));
#296=EDGE_LOOP('',(#84));
#297=EDGE_LOOP('',(#85));
#298=EDGE_LOOP('',(#86));
#299=EDGE_LOOP('',(#87));
#300=EDGE_LOOP('',(#88,#89,#90,#91));
#301=EDGE_LOOP('',(#92,#93,#94,#95,#96,#97,#98,#99));
#302=EDGE_LOOP('',(#100,#101,#102,#103));
#303=EDGE_LOOP('',(#104));
#304=EDGE_LOOP('',(#105));
#305=EDGE_LOOP('',(#106));
#306=EDGE_LOOP('',(#107));
#307=EDGE_LOOP('',(#108,#109,#110,#111,#112,#113,#114,#115));
#308=EDGE_LOOP('',(#116,#117,#118,#119));
#309=EDGE_LOOP('',(#120,#121,#122,#123));
#310=EDGE_LOOP('',(#124,#125,#126,#127));
#311=EDGE_LOOP('',(#128,#129,#130,#131));
#312=EDGE_LOOP('',(#132));
#313=EDGE_LOOP('',(#133));
#314=EDGE_LOOP('',(#134));
#315=EDGE_LOOP('',(#135));
#316=EDGE_LOOP('',(#136));
#317=EDGE_LOOP('',(#137));
#318=EDGE_LOOP('',(#138));
#319=EDGE_LOOP('',(#139));
#320=FACE_BOUND('',#280,.T.);
#321=FACE_BOUND('',#281,.T.);
#322=FACE_BOUND('',#282,.T.);
#323=FACE_BOUND('',#283,.T.);
#324=FACE_BOUND('',#284,.T.);
#325=FACE_BOUND('',#285,.T.);
#326=FACE_BOUND('',#286,.T.);
#327=FACE_BOUND('',#287,.T.);
#328=FACE_BOUND('',#288,.T.);
#329=FACE_BOUND('',#289,.T.);
#330=FACE_BOUND('',#290,.T.);
#331=FACE_BOUND('',#291,.T.);
#332=FACE_BOUND('',#292,.T.);
#333=FACE_BOUND('',#293,.T.);
#334=FACE_BOUND('',#294,.T.);
#335=FACE_BOUND('',#295,.T.);
#336=FACE_BOUND('',#296,.T.);
#337=FACE_BOUND('',#297,.T.);
#338=FACE_BOUND('',#298,.T.);
#339=FACE_BOUND('',#299,.T.);
#340=FACE_BOUND('',#300,.T.);
#341=FACE_BOUND('',#301,.T.);
#342=FACE_BOUND('',#302,.T.);
#343=FACE_BOUND('',#303,.T.);
#344=FACE_BOUND('',#304,.T.);
#345=FACE_BOUND('',#305,.T.);
#346=FACE_BOUND('',#306,.T.);
#347=FACE_BOUND('',#307,.T.);
#348=FACE_BOUND('',#308,.T.);
#349=FACE_BOUND('',#309,.T.);
#350=FACE_BOUND('',#310,.T.);
#351=FACE_BOUND('',#311,.T.);
#352=FACE_BOUND('',#312,.T.);
#353=FACE_BOUND('',#313,.T.);
#354=FACE_BOUND('',#314,.T.);
#355=FACE_BOUND('',#315,.T.);
#356=FACE_BOUND('',#316,.T.);
#357=FACE_BOUND('',#317,.T.);
#358=FACE_BOUND('',#318,.T.);
#359=FACE_BOUND('',#319,.T.);
#360=PLANE('',#405);
#361=PLANE('',#406);
#362=PLANE('',#407);
#363=PLANE('',#408);
#364=PLANE('',#409);
#365=PLANE('',#410);
#366=PLANE('',#423);
#367=PLANE('',#424);
#368=PLANE('',#425);
#369=PLANE('',#434);
#370=ADVANCED_FACE('',(#320),#360,.T.);
#371=ADVANCED_FACE('',(#321),#361,.F.);
#372=ADVANCED_FACE('',(#322),#362,.F.);
#373=ADVANCED_FACE('',(#323),#363,.T.);
#374=ADVANCED_FACE('',(#324),#364,.F.);
#375=ADVANCED_FACE('',(#325),#365,.F.);
#376=ADVANCED_FACE('',(#326,#327),#36,.F.);
#377=ADVANCED_FACE('',(#328,#329),#37,.F.);
#378=ADVANCED_FACE('',(#330,#331),#38,.F.);
#379=ADVANCED_FACE('',(#332,#333),#39,.F.);
#380=ADVANCED_FACE('',(#334),#366,.T.);
#381=ADVANCED_FACE('',(#335),#367,.T.);
#382=ADVANCED_FACE('',(#336,#337,#338,#339,#340,#341),#368,.T.);
#383=ADVANCED_FACE('',(#342,#343,#344,#345,#346,#347),#369,.F.);
#384=ADVANCED_FACE('',(#348),#40,.T.);
#385=ADVANCED_FACE('',(#349),#41,.T.);
#386=ADVANCED_FACE('',(#350),#42,.T.);
#387=ADVANCED_FACE('',(#351),#43,.T.);
#388=ADVANCED_FACE('',(#352,#353),#12,.F.);
#389=ADVANCED_FACE('',(#354,#355),#13,.F.);
#390=ADVANCED_FACE('',(#356,#357),#14,.F.);
#391=ADVANCED_FACE('',(#358,#359),#15,.F.);
#392=CLOSED_SHELL('',(#370,#371,#372,#373,#374,#375,#376,#377,#378,#379,
#380,#381,#382,#383,#384,#385,#386,#387,#388,#389,#390,#391));
#393=STYLED_ITEM('',(#394),#401);
#394=PRESENTATION_STYLE_ASSIGNMENT((#395));
#395=SURFACE_STYLE_USAGE(.BOTH.,#396);
#396=SURFACE_SIDE_STYLE('',(#397));
#397=SURFACE_STYLE_FILL_AREA(#398);
#398=FILL_AREA_STYLE('',(#399));
#399=FILL_AREA_STYLE_COLOUR('',#400);
#400=DRAUGHTING_PRE_DEFINED_COLOUR('black');
#401=MANIFOLD_SOLID_BREP('Part 2',#392);
#402=SHAPE_DEFINITION_REPRESENTATION(#674,#403);
#403=SHAPE_REPRESENTATION('Part 2',(#404),#669);
#404=AXIS2_PLACEMENT_3D('',#561,#447,#448);
#405=AXIS2_PLACEMENT_3D('',#562,#449,#450);
#406=AXIS2_PLACEMENT_3D('',#571,#455,#456);
#407=AXIS2_PLACEMENT_3D('',#580,#461,#462);
#408=AXIS2_PLACEMENT_3D('',#589,#467,#468);
#409=AXIS2_PLACEMENT_3D('',#598,#473,#474);
#410=AXIS2_PLACEMENT_3D('',#604,#478,#479);
#411=AXIS2_PLACEMENT_3D('',#610,#483,#484);
#412=AXIS2_PLACEMENT_3D('',#611,#485,#486);
#413=AXIS2_PLACEMENT_3D('',#613,#487,#488);
#414=AXIS2_PLACEMENT_3D('',#615,#489,#490);
#415=AXIS2_PLACEMENT_3D('',#616,#491,#492);
#416=AXIS2_PLACEMENT_3D('',#618,#493,#494);
#417=AXIS2_PLACEMENT_3D('',#620,#495,#496);
#418=AXIS2_PLACEMENT_3D('',#621,#497,#498);
#419=AXIS2_PLACEMENT_3D('',#623,#499,#500);
#420=AXIS2_PLACEMENT_3D('',#625,#501,#502);
#421=AXIS2_PLACEMENT_3D('',#626,#503,#504);
#422=AXIS2_PLACEMENT_3D('',#628,#505,#506);
#423=AXIS2_PLACEMENT_3D('',#630,#507,#508);
#424=AXIS2_PLACEMENT_3D('',#633,#511,#512);
#425=AXIS2_PLACEMENT_3D('',#642,#517,#518);
#426=AXIS2_PLACEMENT_3D('',#643,#519,#520);
#427=AXIS2_PLACEMENT_3D('',#645,#521,#522);
#428=AXIS2_PLACEMENT_3D('',#647,#523,#524);
#429=AXIS2_PLACEMENT_3D('',#649,#525,#526);
#430=AXIS2_PLACEMENT_3D('',#651,#527,#528);
#431=AXIS2_PLACEMENT_3D('',#652,#529,#530);
#432=AXIS2_PLACEMENT_3D('',#653,#531,#532);
#433=AXIS2_PLACEMENT_3D('',#654,#533,#534);
#434=AXIS2_PLACEMENT_3D('',#655,#535,#536);
#435=AXIS2_PLACEMENT_3D('',#656,#537,#538);
#436=AXIS2_PLACEMENT_3D('',#657,#539,#540);
#437=AXIS2_PLACEMENT_3D('',#658,#541,#542);
#438=AXIS2_PLACEMENT_3D('',#659,#543,#544);
#439=AXIS2_PLACEMENT_3D('',#660,#545,#546);
#440=AXIS2_PLACEMENT_3D('',#661,#547,#548);
#441=AXIS2_PLACEMENT_3D('',#662,#549,#550);
#442=AXIS2_PLACEMENT_3D('',#663,#551,#552);
#443=AXIS2_PLACEMENT_3D('',#664,#553,#554);
#444=AXIS2_PLACEMENT_3D('',#665,#555,#556);
#445=AXIS2_PLACEMENT_3D('',#666,#557,#558);
#446=AXIS2_PLACEMENT_3D('',#667,#559,#560);
#447=DIRECTION('',(0.,0.,1.));
#448=DIRECTION('',(1.,0.,0.));
#449=DIRECTION('',(-1.,1.14422480970488E-15,5.01294081904639E-30));
#450=DIRECTION('',(-1.14422480970488E-15,-1.,0.));
#451=DIRECTION('',(1.14422480970488E-15,1.,2.98372437868011E-16));
#452=DIRECTION('',(-4.67153567310568E-30,2.98372437868011E-16,-1.));
#453=DIRECTION('',(1.14422480970488E-15,1.,2.98372437868011E-16));
#454=DIRECTION('',(-4.67153567310568E-30,2.98372437868011E-16,-1.));
#455=DIRECTION('',(1.02931858392839E-15,1.,2.98372437868011E-16));
#456=DIRECTION('',(-1.,1.02931858392839E-15,0.));
#457=DIRECTION('',(1.,-1.02931858392839E-15,-4.97865596833524E-30));
#458=DIRECTION('',(-4.67153567310568E-30,2.98372437868011E-16,-1.));
#459=DIRECTION('',(1.,-1.02931858392839E-15,-4.97865596833524E-30));
#460=DIRECTION('',(-4.67153567310568E-30,2.98372437868011E-16,-1.));
#461=DIRECTION('',(-1.,1.14422480970488E-15,5.01294081904639E-30));
#462=DIRECTION('',(-1.14422480970488E-15,-1.,0.));
#463=DIRECTION('',(1.14422480970488E-15,1.,2.98372437868011E-16));
#464=DIRECTION('',(-4.67153567310568E-30,2.98372437868011E-16,-1.));
#465=DIRECTION('',(1.14422480970488E-15,1.,2.98372437868011E-16));
#466=DIRECTION('',(-4.67153567310568E-30,2.98372437868011E-16,-1.));
#467=DIRECTION('',(1.,1.24038101035707E-45,-4.67153567310568E-30));
#468=DIRECTION('',(-4.67153567310568E-30,0.,-1.));
#469=DIRECTION('',(-1.53476477014849E-46,-1.,-2.98372437868011E-16));
#470=DIRECTION('',(-4.67153567310568E-30,2.98372437868011E-16,-1.));
#471=DIRECTION('',(-1.53476477014849E-46,-1.,-2.98372437868011E-16));
#472=DIRECTION('',(-4.67153567310568E-30,2.98372437868011E-16,-1.));
#473=DIRECTION('',(-3.61636164373015E-16,1.,2.98372437868011E-16));
#474=DIRECTION('',(-1.,-3.61636164373015E-16,0.));
#475=DIRECTION('',(1.,3.61636164373015E-16,-4.56363340912047E-30));
#476=DIRECTION('',(-4.67153567310568E-30,2.98372437868011E-16,-1.));
#477=DIRECTION('',(1.,3.61636164373015E-16,-4.56363340912047E-30));
#478=DIRECTION('',(1.,3.09772049281573E-16,-4.57910823157817E-30));
#479=DIRECTION('',(-3.09772049281573E-16,1.,0.));
#480=DIRECTION('',(3.09772049281573E-16,-1.,-2.98372437868011E-16));
#481=DIRECTION('',(-4.67153567310568E-30,2.98372437868011E-16,-1.));
#482=DIRECTION('',(3.09772049281573E-16,-1.,-2.98372437868011E-16));
#483=DIRECTION('',(-4.67153567310568E-30,2.98372437868011E-16,-1.));
#484=DIRECTION('',(0.,1.,2.98372437868011E-16));
#485=DIRECTION('',(0.,0.,1.));
#486=DIRECTION('',(1.,0.,0.));
#487=DIRECTION('',(4.67153567310568E-30,-2.98372437868011E-16,1.));
#488=DIRECTION('',(0.,-1.,-2.98372437868011E-16));
#489=DIRECTION('',(-4.67153567310568E-30,2.98372437868011E-16,-1.));
#490=DIRECTION('',(0.,1.,2.98372437868011E-16));
#491=DIRECTION('',(0.,0.,1.));
#492=DIRECTION('',(1.,0.,0.));
#493=DIRECTION('',(4.67153567310568E-30,-2.98372437868011E-16,1.));
#494=DIRECTION('',(0.,-1.,-2.98372437868011E-16));
#495=DIRECTION('',(-4.67153567310568E-30,2.98372437868011E-16,-1.));
#496=DIRECTION('',(0.,1.,2.98372437868011E-16));
#497=DIRECTION('',(0.,0.,1.));
#498=DIRECTION('',(1.,0.,0.));
#499=DIRECTION('',(4.67153567310568E-30,-2.98372437868011E-16,1.));
#500=DIRECTION('',(0.,-1.,-2.98372437868011E-16));
#501=DIRECTION('',(-4.67153567310568E-30,2.98372437868011E-16,-1.));
#502=DIRECTION('',(0.,1.,2.98372437868011E-16));
#503=DIRECTION('',(0.,0.,1.));
#504=DIRECTION('',(1.,0.,0.));
#505=DIRECTION('',(4.67153567310568E-30,-2.98372437868011E-16,1.));
#506=DIRECTION('',(0.,-1.,-2.98372437868011E-16));
#507=DIRECTION('',(-1.80818082186507E-16,1.,2.98372437868011E-16));
#508=DIRECTION('',(0.,-2.98372437868011E-16,1.));
#509=DIRECTION('',(1.,1.80818082186507E-16,-4.61758454111307E-30));
#510=DIRECTION('',(1.,1.80818082186507E-16,-4.61758454111307E-30));
#511=DIRECTION('',(1.06148478967615E-15,1.,2.98372437868011E-16));
#512=DIRECTION('',(-1.,1.06148478967615E-15,0.));
#513=DIRECTION('',(1.,-1.06148478967615E-15,-4.98825347756117E-30));
#514=DIRECTION('',(-4.67153567310568E-30,2.98372437868011E-16,-1.));
#515=DIRECTION('',(1.,-1.06148478967615E-15,-4.98825347756117E-30));
#516=DIRECTION('',(-4.67153567310568E-30,2.98372437868011E-16,-1.));
#517=DIRECTION('',(4.67153567310568E-30,-2.98372437868011E-16,1.));
#518=DIRECTION('',(1.,1.39385748737192E-45,-4.67153567310568E-30));
#519=DIRECTION('',(4.67153567310568E-30,-2.98372437868011E-16,1.));
#520=DIRECTION('',(0.,-1.,-2.98372437868011E-16));
#521=DIRECTION('',(4.67153567310568E-30,-2.98372437868011E-16,1.));
#522=DIRECTION('',(0.,-1.,-2.98372437868011E-16));
#523=DIRECTION('',(4.67153567310568E-30,-2.98372437868011E-16,1.));
#524=DIRECTION('',(0.,-1.,-2.98372437868011E-16));
#525=DIRECTION('',(4.67153567310568E-30,-2.98372437868011E-16,1.));
#526=DIRECTION('',(0.,-1.,-2.98372437868011E-16));
#527=DIRECTION('',(4.67153567310568E-30,-2.98372437868011E-16,1.));
#528=DIRECTION('',(0.,-1.,-2.98372437868011E-16));
#529=DIRECTION('',(4.67153567310568E-30,-2.98372437868011E-16,1.));
#530=DIRECTION('',(0.,-1.,-2.98372437868011E-16));
#531=DIRECTION('',(4.67153567310568E-30,-2.98372437868011E-16,1.));
#532=DIRECTION('',(0.,-1.,-2.98372437868011E-16));
#533=DIRECTION('',(4.67153567310568E-30,-2.98372437868011E-16,1.));
#534=DIRECTION('',(0.,-1.,-2.98372437868011E-16));
#535=DIRECTION('',(4.67153567310568E-30,-2.98372437868011E-16,1.));
#536=DIRECTION('',(1.,1.39385748737192E-45,-4.67153567310568E-30));
#537=DIRECTION('',(4.67153567310568E-30,-2.98372437868011E-16,1.));
#538=DIRECTION('',(0.,-1.,-2.98372437868011E-16));
#539=DIRECTION('',(4.67153567310568E-30,-2.98372437868011E-16,1.));
#540=DIRECTION('',(0.,-1.,-2.98372437868011E-16));
#541=DIRECTION('',(4.67153567310568E-30,-2.98372437868011E-16,1.));
#542=DIRECTION('',(0.,-1.,-2.98372437868011E-16));
#543=DIRECTION('',(4.67153567310568E-30,-2.98372437868011E-16,1.));
#544=DIRECTION('',(0.,-1.,-2.98372437868011E-16));
#545=DIRECTION('',(4.67153567310568E-30,-2.98372437868011E-16,1.));
#546=DIRECTION('',(0.,-1.,-2.98372437868011E-16));
#547=DIRECTION('',(-4.67153567310568E-30,2.98372437868011E-16,-1.));
#548=DIRECTION('',(0.,1.,2.98372437868011E-16));
#549=DIRECTION('',(4.67153567310568E-30,-2.98372437868011E-16,1.));
#550=DIRECTION('',(0.,-1.,-2.98372437868011E-16));
#551=DIRECTION('',(-4.67153567310568E-30,2.98372437868011E-16,-1.));
#552=DIRECTION('',(0.,1.,2.98372437868011E-16));
#553=DIRECTION('',(0.,0.,1.));
#554=DIRECTION('',(1.,0.,0.));
#555=DIRECTION('',(0.,0.,1.));
#556=DIRECTION('',(1.,0.,0.));
#557=DIRECTION('',(0.,0.,1.));
#558=DIRECTION('',(1.,0.,0.));
#559=DIRECTION('',(0.,0.,1.));
#560=DIRECTION('',(1.,0.,0.));
#561=CARTESIAN_POINT('',(0.,0.,0.));
#562=CARTESIAN_POINT('',(-0.0971245083942413,-0.0434160735556083,-0.0100155299678597));
#563=CARTESIAN_POINT('',(-0.0971245083942413,-0.0434160735556083,-0.0130155299678597));
#564=CARTESIAN_POINT('',(-0.0971245083942413,-0.0758771779678188,-0.0130155299678598));
#565=CARTESIAN_POINT('',(-0.0971245083942412,-0.0109549691433977,-0.0130155299678597));
#566=CARTESIAN_POINT('',(-0.0971245083942413,-0.0758771779678188,-0.0100155299678598));
#567=CARTESIAN_POINT('',(-0.0971245083942413,-0.0758771779678188,-0.0100155299678598));
#568=CARTESIAN_POINT('',(-0.0971245083942413,-0.0434160735556083,-0.0100155299678597));
#569=CARTESIAN_POINT('',(-0.0971245083942412,-0.0109549691433977,-0.0100155299678597));
#570=CARTESIAN_POINT('',(-0.0971245083942412,-0.0109549691433977,-0.0100155299678597));
#571=CARTESIAN_POINT('',(-0.0431945083942413,-0.0798017235348126,-0.0100155299678598));
#572=CARTESIAN_POINT('',(-0.0431945083942413,-0.0798017235348126,-0.0100155299678598));
#573=CARTESIAN_POINT('',(-0.0931999628272476,-0.0798017235348125,-0.0100155299678598));
#574=CARTESIAN_POINT('',(0.00681094603876496,-0.0798017235348126,-0.0100155299678598));
#575=CARTESIAN_POINT('',(-0.0931999628272476,-0.0798017235348125,-0.0130155299678598));
#576=CARTESIAN_POINT('',(-0.0931999628272476,-0.0798017235348125,-0.0130155299678598));
#577=CARTESIAN_POINT('',(-0.0431945083942413,-0.0798017235348126,-0.0130155299678598));
#578=CARTESIAN_POINT('',(0.00681094603876496,-0.0798017235348126,-0.0130155299678598));
#579=CARTESIAN_POINT('',(0.00681094603876496,-0.0798017235348126,-0.0100155299678598));
#580=CARTESIAN_POINT('',(0.0107354916057587,-0.0434160735556084,-0.0100155299678597));
#581=CARTESIAN_POINT('',(0.0107354916057587,-0.0434160735556084,-0.0130155299678597));
#582=CARTESIAN_POINT('',(0.0107354916057587,-0.0758771779678189,-0.0130155299678598));
#583=CARTESIAN_POINT('',(0.0107354916057587,-0.0109549691433978,-0.0130155299678597));
#584=CARTESIAN_POINT('',(0.0107354916057587,-0.0109549691433978,-0.0100155299678597));
#585=CARTESIAN_POINT('',(0.0107354916057587,-0.0109549691433978,-0.0100155299678597));
#586=CARTESIAN_POINT('',(0.0107354916057587,-0.0434160735556084,-0.0100155299678597));
#587=CARTESIAN_POINT('',(0.0107354916057587,-0.0758771779678189,-0.0100155299678598));
#588=CARTESIAN_POINT('',(0.0107354916057587,-0.0758771779678189,-0.0100155299678598));
#589=CARTESIAN_POINT('',(-0.0817615950084143,-0.0477271688761631,-0.0100155299678597));
#590=CARTESIAN_POINT('',(-0.0817615950084143,-0.0477271688761631,-0.0130155299678597));
#591=CARTESIAN_POINT('',(-0.0817615950084143,-0.0379271688761631,-0.0130155299678597));
#592=CARTESIAN_POINT('',(-0.0817615950084143,-0.0575271688761631,-0.0130155299678597));
#593=CARTESIAN_POINT('',(-0.0817615950084143,-0.0379271688761631,-0.0100155299678597));
#594=CARTESIAN_POINT('',(-0.0817615950084143,-0.0379271688761631,-0.0100155299678597));
#595=CARTESIAN_POINT('',(-0.0817615950084143,-0.0477271688761631,-0.0100155299678597));
#596=CARTESIAN_POINT('',(-0.0817615950084143,-0.0575271688761631,-0.0100155299678597));
#597=CARTESIAN_POINT('',(-0.0817615950084143,-0.0575271688761631,-0.0100155299678597));
#598=CARTESIAN_POINT('',(-0.0433865950084143,-0.037927168876163,-0.0100155299678597));
#599=CARTESIAN_POINT('',(-0.0433865950084143,-0.037927168876163,-0.0130155299678597));
#600=CARTESIAN_POINT('',(-0.00501159500841431,-0.037927168876163,-0.0130155299678597));
#601=CARTESIAN_POINT('',(-0.00501159500841431,-0.037927168876163,-0.0100155299678597));
#602=CARTESIAN_POINT('',(-0.00501159500841431,-0.037927168876163,-0.0100155299678597));
#603=CARTESIAN_POINT('',(-0.0433865950084143,-0.037927168876163,-0.0100155299678597));
#604=CARTESIAN_POINT('',(-0.00501159500841431,-0.0477271688761631,-0.0100155299678597));
#605=CARTESIAN_POINT('',(-0.00501159500841431,-0.0477271688761631,-0.0130155299678597));
#606=CARTESIAN_POINT('',(-0.0050115950084143,-0.0575271688761631,-0.0130155299678597));
#607=CARTESIAN_POINT('',(-0.0050115950084143,-0.0575271688761631,-0.0100155299678597));
#608=CARTESIAN_POINT('',(-0.0050115950084143,-0.0575271688761631,-0.0100155299678597));
#609=CARTESIAN_POINT('',(-0.00501159500841431,-0.0477271688761631,-0.0100155299678597));
#610=CARTESIAN_POINT('',(-0.0920245083942412,-0.012130423576404,-0.0100155299678597));
#611=CARTESIAN_POINT('',(-0.0920245083942412,-0.012130423576404,-0.0103155299678597));
#612=CARTESIAN_POINT('',(-0.0899245083942412,-0.012130423576404,-0.0103155299678597));
#613=CARTESIAN_POINT('',(-0.0920245083942412,-0.012130423576404,-0.0130155299678597));
#614=CARTESIAN_POINT('',(-0.0920245083942412,-0.014230423576404,-0.0130155299678597));
#615=CARTESIAN_POINT('',(0.00563549160575874,-0.0121304235764041,-0.0100155299678597));
#616=CARTESIAN_POINT('',(0.00563549160575874,-0.0121304235764041,-0.0103155299678597));
#617=CARTESIAN_POINT('',(0.00773549160575874,-0.0121304235764041,-0.0103155299678597));
#618=CARTESIAN_POINT('',(0.00563549160575874,-0.0121304235764041,-0.0130155299678597));
#619=CARTESIAN_POINT('',(0.00563549160575874,-0.0142304235764041,-0.0130155299678597));
#620=CARTESIAN_POINT('',(0.00563549160575867,-0.0747017235348126,-0.0100155299678598));
#621=CARTESIAN_POINT('',(0.00563549160575867,-0.0747017235348126,-0.0103155299678598));
#622=CARTESIAN_POINT('',(0.00773549160575867,-0.0747017235348126,-0.0103155299678598));
#623=CARTESIAN_POINT('',(0.00563549160575867,-0.0747017235348126,-0.0130155299678598));
#624=CARTESIAN_POINT('',(0.00563549160575867,-0.0768017235348126,-0.0130155299678598));
#625=CARTESIAN_POINT('',(-0.0920245083942413,-0.0747017235348125,-0.0100155299678598));
#626=CARTESIAN_POINT('',(-0.0920245083942413,-0.0747017235348125,-0.0103155299678598));
#627=CARTESIAN_POINT('',(-0.0899245083942413,-0.0747017235348125,-0.0103155299678598));
#628=CARTESIAN_POINT('',(-0.0920245083942413,-0.0747017235348125,-0.0130155299678598));
#629=CARTESIAN_POINT('',(-0.0920245083942413,-0.0768017235348125,-0.0130155299678598));
#630=CARTESIAN_POINT('',(-0.0433865950084143,-0.0575271688761631,-0.0100155299678597));
#631=CARTESIAN_POINT('',(-0.0433865950084143,-0.0575271688761631,-0.0130155299678597));
#632=CARTESIAN_POINT('',(-0.0433865950084143,-0.0575271688761631,-0.0100155299678597));
#633=CARTESIAN_POINT('',(-0.0431945083942412,-0.00703042357640409,-0.0100155299678597));
#634=CARTESIAN_POINT('',(-0.0431945083942412,-0.00703042357640409,-0.0130155299678597));
#635=CARTESIAN_POINT('',(-0.0931999628272475,-0.00703042357640404,-0.0130155299678597));
#636=CARTESIAN_POINT('',(0.00681094603876505,-0.00703042357640414,-0.0130155299678597));
#637=CARTESIAN_POINT('',(-0.0931999628272475,-0.00703042357640404,-0.0100155299678597));
#638=CARTESIAN_POINT('',(-0.0931999628272475,-0.00703042357640404,-0.0100155299678597));
#639=CARTESIAN_POINT('',(-0.0431945083942412,-0.00703042357640409,-0.0100155299678597));
#640=CARTESIAN_POINT('',(0.00681094603876505,-0.00703042357640414,-0.0100155299678597));
#641=CARTESIAN_POINT('',(0.00681094603876504,-0.00703042357640414,-0.0130155299678597));
#642=CARTESIAN_POINT('',(-0.0431945083942412,-0.0434160735556084,-0.0100155299678597));
#643=CARTESIAN_POINT('',(0.00563549160575867,-0.0747017235348126,-0.0100155299678598));
#644=CARTESIAN_POINT('',(0.00563549160575867,-0.0771017235348126,-0.0100155299678598));
#645=CARTESIAN_POINT('',(-0.0920245083942413,-0.0747017235348125,-0.0100155299678598));
#646=CARTESIAN_POINT('',(-0.0920245083942413,-0.0771017235348125,-0.0100155299678598));
#647=CARTESIAN_POINT('',(0.00563549160575874,-0.0121304235764041,-0.0100155299678597));
#648=CARTESIAN_POINT('',(0.00563549160575874,-0.0145304235764041,-0.0100155299678597));
#649=CARTESIAN_POINT('',(-0.0920245083942412,-0.012130423576404,-0.0100155299678597));
#650=CARTESIAN_POINT('',(-0.0920245083942412,-0.014530423576404,-0.0100155299678597));
#651=CARTESIAN_POINT('',(-0.0931999628272476,-0.0758771779678188,-0.0100155299678598));
#652=CARTESIAN_POINT('',(0.00681094603876497,-0.0758771779678189,-0.0100155299678598));
#653=CARTESIAN_POINT('',(0.00681094603876504,-0.0109549691433978,-0.0100155299678597));
#654=CARTESIAN_POINT('',(-0.0931999628272475,-0.0109549691433977,-0.0100155299678597));
#655=CARTESIAN_POINT('',(-0.0431945083942412,-0.0434160735556084,-0.0130155299678597));
#656=CARTESIAN_POINT('',(-0.0931999628272476,-0.0758771779678188,-0.0130155299678598));
#657=CARTESIAN_POINT('',(-0.0931999628272475,-0.0109549691433977,-0.0130155299678597));
#658=CARTESIAN_POINT('',(0.00681094603876504,-0.0109549691433978,-0.0130155299678597));
#659=CARTESIAN_POINT('',(0.00681094603876497,-0.0758771779678189,-0.0130155299678598));
#660=CARTESIAN_POINT('',(-0.0931999628272476,-0.0758771779678188,-0.0100155299678598));
#661=CARTESIAN_POINT('',(-0.0931999628272475,-0.0109549691433977,-0.0100155299678597));
#662=CARTESIAN_POINT('',(0.00681094603876504,-0.0109549691433978,-0.0100155299678597));
#663=CARTESIAN_POINT('',(0.00681094603876497,-0.0758771779678189,-0.0100155299678598));
#664=CARTESIAN_POINT('',(0.00563549160575867,-0.0747017235348126,-0.0103155299678598));
#665=CARTESIAN_POINT('',(-0.0920245083942413,-0.0747017235348125,-0.0103155299678598));
#666=CARTESIAN_POINT('',(0.00563549160575874,-0.0121304235764041,-0.0103155299678597));
#667=CARTESIAN_POINT('',(-0.0920245083942412,-0.012130423576404,-0.0103155299678597));
#668=MECHANICAL_DESIGN_GEOMETRIC_PRESENTATION_REPRESENTATION('',(#393),
#669);
#669=(
GEOMETRIC_REPRESENTATION_CONTEXT(3)
GLOBAL_UNCERTAINTY_ASSIGNED_CONTEXT((#670))
GLOBAL_UNIT_ASSIGNED_CONTEXT((#673,#672,#671))
REPRESENTATION_CONTEXT('Part 2','TOP_LEVEL_ASSEMBLY_PART')
);
#670=UNCERTAINTY_MEASURE_WITH_UNIT(LENGTH_MEASURE(1.E-8),#673,
'DISTANCE_ACCURACY_VALUE','Maximum Tolerance applied to model');
#671=(
NAMED_UNIT(*)
SI_UNIT($,.STERADIAN.)
SOLID_ANGLE_UNIT()
);
#672=(
NAMED_UNIT(*)
PLANE_ANGLE_UNIT()
SI_UNIT($,.RADIAN.)
);
#673=(
LENGTH_UNIT()
NAMED_UNIT(*)
SI_UNIT($,.METRE.)
);
#674=PRODUCT_DEFINITION_SHAPE('','',#675);
#675=PRODUCT_DEFINITION('','',#677,#676);
#676=PRODUCT_DEFINITION_CONTEXT('',#683,'design');
#677=PRODUCT_DEFINITION_FORMATION_WITH_SPECIFIED_SOURCE('','',#679,
 .NOT_KNOWN.);
#678=PRODUCT_RELATED_PRODUCT_CATEGORY('','',(#679));
#679=PRODUCT('Part 2','Part 2','Part 2',(#681));
#680=PRODUCT_CATEGORY('','');
#681=PRODUCT_CONTEXT('',#683,'mechanical');
#682=APPLICATION_PROTOCOL_DEFINITION('international standard',
'ap242_managed_model_based_3d_engineering',2020,#683);
#683=APPLICATION_CONTEXT('managed model based 3d engineering');
ENDSEC;
END-ISO-10303-21;
